MMXI-Medium.ufo
<glyph name="exclam" format="1">
  <advance width="496"/>
  <unicode hex="0021"/>
  <outline>
    <contour>
      <point x="128" y="1472" type="line"/>
      <point x="128" y="496" type="line"/>
      <point x="384" y="496" type="line"/>
      <point x="384" y="1472" type="line"/>
    </contour>
    <contour>
      <point x="384" y="0" type="line"/>
      <point x="384" y="288" type="line"/>
      <point x="128" y="288" type="line"/>
      <point x="128" y="0" type="line"/>
    </contour>
  </outline>
</glyph>
<glyph name="numbersign" format="1">
  <advance width="1568"/>
  <unicode hex="0023"/>
  <outline>
    <contour>
      <point x="1048" y="1472" type="line"/>
      <point x="792" y="0" type="line"/>
      <point x="1048" y="0" type="line"/>
      <point x="1304" y="1472" type="line"/>
    </contour>
    <contour>
      <point x="536" y="1472" type="line"/>
      <point x="280" y="0" type="line"/>
      <point x="536" y="0" type="line"/>
      <point x="792" y="1472" type="line"/>
    </contour>
    <contour>
      <point x="1376" y="608" type="line"/>
      <point x="96" y="608" type="line"/>
      <point x="96" y="368" type="line"/>
      <point x="1376" y="368" type="line"/>
    </contour>
    <contour>
      <point x="1472" y="1104" type="line"/>
      <point x="192" y="1104" type="line"/>
      <point x="192" y="864" type="line"/>
      <point x="1472" y="864" type="line"/>
    </contour>
  </outline>
</glyph>
<glyph name="dollar" format="1">
  <advance width="800.0"/>
  <unicode hex="0024"/>
  <outline>
    <contour>
      <point x="320" y="128" type="line"/>
      <point x="320" y="-192" type="line"/>
      <point x="476" y="-192" type="line"/>
      <point x="476" y="128" type="line"/>
    </contour>
    <contour>
      <point x="640" y="720" type="curve" smooth="yes"/>
      <point x="448" y="912" type="line" smooth="yes"/>
      <point x="368" y="992"/>
      <point x="304" y="1040"/>
      <point x="304" y="1120" type="curve"/>
      <point x="304" y="1216"/>
      <point x="384" y="1264"/>
      <point x="480" y="1264" type="curve" smooth="yes"/>
      <point x="560" y="1264"/>
      <point x="640" y="1232"/>
      <point x="704" y="1200" type="curve"/>
      <point x="704" y="1440" type="line"/>
      <point x="640" y="1488"/>
      <point x="544" y="1504"/>
      <point x="448" y="1504" type="curve"/>
      <point x="160" y="1504"/>
      <point x="32" y="1344"/>
      <point x="32" y="1120" type="curve"/>
      <point x="32" y="960"/>
      <point x="80" y="880"/>
      <point x="192" y="768" type="curve" smooth="yes"/>
      <point x="384" y="576" type="line" smooth="yes"/>
      <point x="448" y="512"/>
      <point x="480" y="464"/>
      <point x="480" y="384" type="curve"/>
      <point x="480" y="288"/>
      <point x="416" y="208"/>
      <point x="320" y="208" type="curve" smooth="yes"/>
      <point x="240" y="208"/>
      <point x="160" y="224"/>
      <point x="64" y="272" type="curve"/>
      <point x="64" y="32" type="line"/>
      <point x="144" y="-16"/>
      <point x="256" y="-32"/>
      <point x="352" y="-32" type="curve"/>
      <point x="576" y="-32"/>
      <point x="768" y="112"/>
      <point x="768" y="384" type="curve"/>
      <point x="768" y="544"/>
      <point x="736" y="624"/>
    </contour>
    <contour>
      <point x="320" y="1664" type="line"/>
      <point x="320" y="1340" type="line"/>
      <point x="472" y="1340" type="line"/>
      <point x="472" y="1664" type="line"/>
    </contour>
  </outline>
</glyph>
<glyph name="ampersand" format="1">
  <advance width="1424.0"/>
  <unicode hex="0026"/>
  <outline>
    <contour>
      <point x="656" y="1504" type="curve"/>
      <point x="656" y="1264" type="line"/>
      <point x="688" y="1264"/>
      <point x="736" y="1248"/>
      <point x="736" y="1184" type="curve"/>
      <point x="736" y="1104"/>
      <point x="696" y="1060"/>
      <point x="672" y="1024" type="curve" smooth="yes"/>
      <point x="600" y="924" type="line"/>
      <point x="736" y="764" type="line" smooth="yes"/>
      <point x="908" y="896" type="line" smooth="yes"/>
      <point x="996" y="972"/>
      <point x="1024" y="1088"/>
      <point x="1024" y="1184" type="curve"/>
      <point x="1024" y="1328"/>
      <point x="912" y="1504"/>
    </contour>
    <contour>
      <point x="656" y="1504" type="line"/>
      <point x="400" y="1504"/>
      <point x="304" y="1328"/>
      <point x="304" y="1184" type="curve"/>
      <point x="304" y="1088"/>
      <point x="336" y="984"/>
      <point x="400" y="896" type="curve" smooth="yes"/>
      <point x="1008" y="0" type="line" smooth="yes"/>
      <point x="1344" y="0" type="line"/>
      <point x="640" y="1024" type="line" smooth="yes"/>
      <point x="616" y="1060"/>
      <point x="576" y="1104"/>
      <point x="576" y="1184" type="curve"/>
      <point x="576" y="1248"/>
      <point x="624" y="1264"/>
      <point x="656" y="1264" type="curve"/>
    </contour>
    <contour>
      <point x="1024" y="640" type="line"/>
      <point x="1024" y="512"/>
      <point x="912" y="208"/>
      <point x="656" y="208" type="curve"/>
      <point x="528" y="208"/>
      <point x="400" y="304"/>
      <point x="400" y="448" type="curve"/>
      <point x="400" y="552"/>
      <point x="464" y="616"/>
      <point x="624" y="704" type="curve"/>
      <point x="624" y="704"/>
      <point x="496" y="872"/>
      <point x="496" y="872" type="curve"/>
      <point x="304" y="804"/>
      <point x="128" y="640"/>
      <point x="128" y="448" type="curve"/>
      <point x="128" y="160"/>
      <point x="336" y="-32"/>
      <point x="656" y="-32" type="curve"/>
      <point x="1072" y="-32"/>
      <point x="1296" y="352"/>
      <point x="1296" y="640" type="curve"/>
    </contour>
  </outline>
</glyph>
<glyph name="quotesingle" format="1">
  <advance width="512"/>
  <unicode hex="0027"/>
  <outline>
    <contour>
      <point x="384" y="1024" type="curve"/>
      <point x="384" y="1472" type="line"/>
      <point x="128" y="1472" type="line"/>
      <point x="128" y="960" type="line"/>
      <point x="128" y="960"/>
      <point x="384" y="1024"/>
    </contour>
  </outline>
</glyph>
<glyph name="parenleft" format="1">
  <advance width="608"/>
  <unicode hex="0028"/>
  <outline>
    <contour>
      <point x="192.0" y="1184.0"/>
      <point x="128.0" y="928.0"/>
      <point x="128.0" y="640.0" type="curve"/>
      <point x="128.0" y="352.0"/>
      <point x="192.0" y="96.0"/>
      <point x="336.0" y="-192.0" type="curve"/>
      <point x="560.0" y="-192.0" type="line"/>
      <point x="416.0" y="96.0"/>
      <point x="352.0" y="352.0"/>
      <point x="352.0" y="640.0" type="curve"/>
      <point x="352.0" y="928.0"/>
      <point x="416.0" y="1184.0"/>
      <point x="560.0" y="1472.0" type="curve"/>
      <point x="336.0" y="1472.0" type="line"/>
    </contour>
  </outline>
</glyph>
<glyph name="parenright" format="1">
  <advance width="608"/>
  <unicode hex="0029"/>
  <outline>
    <contour>
      <point x="272" y="1472" type="curve"/>
      <point x="48" y="1472" type="line"/>
      <point x="192.0" y="1184.0"/>
      <point x="256" y="928"/>
      <point x="256" y="640" type="curve"/>
      <point x="256" y="352"/>
      <point x="192.0" y="96.0"/>
      <point x="48" y="-192" type="curve"/>
      <point x="272" y="-192" type="line"/>
      <point x="416.0" y="96.0"/>
      <point x="480" y="352"/>
      <point x="480" y="640" type="curve"/>
      <point x="480" y="928"/>
      <point x="416.0" y="1184.0"/>
    </contour>
  </outline>
</glyph>
<glyph name="asterisk" format="1">
  <advance width="948.0"/>
  <unicode hex="002A"/>
  <outline>
    <contour>
      <point x="452" y="1068" type="curve"/>
      <point x="640" y="764" type="line"/>
      <point x="808" y="884" type="line"/>
      <point x="572" y="1160" type="line"/>
      <point x="572" y="1160"/>
      <point x="452" y="1068"/>
    </contour>
    <contour>
      <point x="452" y="1160" type="curve"/>
      <point x="216" y="884" type="line"/>
      <point x="384" y="764" type="line"/>
      <point x="572" y="1068" type="line"/>
      <point x="572" y="1068"/>
      <point x="452" y="1160"/>
    </contour>
    <contour>
      <point x="536" y="1188" type="curve"/>
      <point x="200" y="1320" type="line"/>
      <point x="140" y="1128" type="line"/>
      <point x="488" y="1040" type="line"/>
      <point x="488" y="1040"/>
      <point x="536" y="1188"/>
    </contour>
    <contour>
      <point x="536" y="1040" type="curve"/>
      <point x="884" y="1128" type="line"/>
      <point x="824" y="1320" type="line"/>
      <point x="488" y="1188" type="line"/>
      <point x="488" y="1188"/>
      <point x="536" y="1040"/>
    </contour>
    <contour>
      <point x="588" y="1112" type="curve"/>
      <point x="616" y="1472" type="line"/>
      <point x="408" y="1472" type="line"/>
      <point x="436" y="1112" type="line"/>
      <point x="436" y="1112"/>
      <point x="588" y="1112"/>
    </contour>
  </outline>
</glyph>
<glyph name="comma" format="1">
  <advance width="480"/>
  <unicode hex="002C"/>
  <outline>
    <contour>
      <point x="368" y="-320" type="curve"/>
      <point x="368" y="288" type="line"/>
      <point x="112" y="288" type="line"/>
      <point x="112" y="-384" type="line"/>
      <point x="112" y="-384"/>
      <point x="368" y="-320"/>
    </contour>
  </outline>
</glyph>
<glyph name="hyphen" format="1">
  <advance width="960"/>
  <unicode hex="002D"/>
  <outline>
    <contour>
      <point x="768" y="768" type="line"/>
      <point x="64" y="768" type="line"/>
      <point x="64" y="528" type="line"/>
      <point x="768" y="528" type="line"/>
    </contour>
  </outline>
</glyph>
<glyph name="slash" format="1">
  <advance width="928"/>
  <unicode hex="002F"/>
  <outline>
    <contour>
      <point x="592" y="1472" type="curve"/>
      <point x="112" y="0" type="line"/>
      <point x="336" y="0" type="line"/>
      <point x="352" y="32"/>
      <point x="816" y="1472"/>
      <point x="816" y="1472" type="curve"/>
      <point x="816" y="1472"/>
      <point x="592" y="1472"/>
    </contour>
  </outline>
</glyph>
<glyph name="zero" format="1">
  <advance width="1056"/>
  <unicode hex="0030"/>
  <outline>
    <contour>
      <point x="528" y="-32" type="curve" smooth="yes"/>
      <point x="784" y="-32"/>
      <point x="960" y="160"/>
      <point x="960" y="416" type="curve" smooth="yes"/>
      <point x="960" y="1056" type="line" smooth="yes"/>
      <point x="960" y="1312"/>
      <point x="784" y="1504"/>
      <point x="528" y="1504" type="curve" smooth="yes"/>
      <point x="272" y="1504"/>
      <point x="96" y="1312"/>
      <point x="96" y="1056" type="curve" smooth="yes"/>
      <point x="96" y="416" type="line" smooth="yes"/>
      <point x="96" y="160"/>
      <point x="272" y="-32"/>
    </contour>
    <contour>
      <point x="528" y="224" type="curve" smooth="yes"/>
      <point x="432" y="224"/>
      <point x="368" y="288"/>
      <point x="368" y="384" type="curve" smooth="yes"/>
      <point x="368" y="1088" type="line" smooth="yes"/>
      <point x="368" y="1184"/>
      <point x="432" y="1248"/>
      <point x="528" y="1248" type="curve" smooth="yes"/>
      <point x="624" y="1248"/>
      <point x="688" y="1184"/>
      <point x="688" y="1088" type="curve" smooth="yes"/>
      <point x="688" y="384" type="line" smooth="yes"/>
      <point x="688" y="288"/>
      <point x="624" y="224"/>
    </contour>
  </outline>
</glyph>
<glyph name="one" format="1">
  <advance width="624"/>
  <unicode hex="0031"/>
  <outline>
    <contour>
      <point x="528" y="0" type="line"/>
      <point x="528" y="1472" type="line"/>
      <point x="96" y="1472" type="line"/>
      <point x="96" y="1232" type="line"/>
      <point x="256" y="1232" type="line"/>
      <point x="256" y="0" type="line"/>
    </contour>
  </outline>
</glyph>
<glyph name="two" format="1">
  <advance width="992"/>
  <unicode hex="0032"/>
  <outline>
    <contour>
      <point x="592" y="1056" type="curve"/>
      <point x="592" y="960"/>
      <point x="468" y="768"/>
      <point x="384" y="640" type="curve" smooth="yes"/>
      <point x="64" y="160" type="line"/>
      <point x="376" y="160" type="line"/>
      <point x="592" y="480" type="line" smooth="yes"/>
      <point x="756" y="720"/>
      <point x="864" y="896"/>
      <point x="864" y="1088" type="curve"/>
      <point x="864" y="1344"/>
      <point x="704" y="1504"/>
      <point x="416" y="1504" type="curve"/>
      <point x="224" y="1504"/>
      <point x="128" y="1440"/>
      <point x="64" y="1408" type="curve"/>
      <point x="64" y="1152" type="line"/>
      <point x="128" y="1184"/>
      <point x="224" y="1248"/>
      <point x="384" y="1248" type="curve"/>
      <point x="512" y="1248"/>
      <point x="592" y="1184"/>
    </contour>
    <contour>
      <point x="864" y="224" type="line"/>
      <point x="192" y="224" type="line"/>
      <point x="64" y="160" type="line"/>
      <point x="64" y="160"/>
      <point x="64" y="0"/>
      <point x="64" y="0" type="curve"/>
      <point x="864" y="0" type="line"/>
    </contour>
  </outline>
</glyph>
<glyph name="three" format="1">
  <advance width="992"/>
  <unicode hex="0033"/>
  <outline>
    <contour>
      <point x="624" y="480" type="curve"/>
      <point x="624" y="320"/>
      <point x="496" y="208"/>
      <point x="352" y="208" type="curve"/>
      <point x="224" y="208"/>
      <point x="160" y="240"/>
      <point x="96" y="288" type="curve"/>
      <point x="96" y="32" type="line"/>
      <point x="160" y="0"/>
      <point x="256" y="-32"/>
      <point x="352" y="-32" type="curve"/>
      <point x="672" y="-32"/>
      <point x="896" y="192"/>
      <point x="896" y="480" type="curve"/>
      <point x="896" y="768"/>
      <point x="672" y="992"/>
      <point x="352" y="992" type="curve"/>
      <point x="320" y="992"/>
      <point x="336" y="992"/>
      <point x="304" y="992" type="curve"/>
      <point x="96" y="896" type="line"/>
      <point x="96" y="672" type="line"/>
      <point x="160" y="720"/>
      <point x="224" y="752"/>
      <point x="352" y="752" type="curve" smooth="yes"/>
      <point x="496" y="752"/>
      <point x="624" y="640"/>
    </contour>
    <contour>
      <point x="512" y="1232" type="line"/>
      <point x="96" y="896" type="line"/>
      <point x="96" y="896"/>
      <point x="352" y="832"/>
      <point x="352" y="832" type="curve"/>
      <point x="352" y="832"/>
      <point x="848" y="1232"/>
      <point x="848" y="1232" type="curve"/>
      <point x="848" y="1232"/>
      <point x="848" y="1472"/>
      <point x="848" y="1472" type="curve"/>
      <point x="96" y="1472" type="line"/>
      <point x="96" y="1232" type="line"/>
    </contour>
  </outline>
</glyph>
<glyph name="four" format="1">
  <advance width="960"/>
  <unicode hex="0034"/>
  <outline>
    <contour>
      <point x="864.0" y="544.0" type="line"/>
      <point x="256" y="544" type="line"/>
      <point x="96.0" y="384.0" type="line"/>
      <point x="96.0" y="384.0"/>
      <point x="96.0" y="320.0"/>
      <point x="96.0" y="320.0" type="curve"/>
      <point x="864.0" y="320.0" type="line"/>
    </contour>
    <contour>
      <point x="864" y="0" type="curve"/>
      <point x="864" y="704" type="line"/>
      <point x="864" y="704"/>
      <point x="608" y="704"/>
      <point x="608" y="704" type="curve"/>
      <point x="608" y="0" type="line"/>
      <point x="608" y="0"/>
      <point x="864" y="0"/>
    </contour>
    <contour>
      <point x="352" y="384" type="line"/>
      <point x="752" y="1472" type="line"/>
      <point x="480" y="1472" type="line"/>
      <point x="96" y="384" type="line"/>
    </contour>
  </outline>
</glyph>
<glyph name="five" format="1">
  <advance width="992.0"/>
  <unicode hex="0035"/>
  <outline>
    <contour>
      <point x="496.0" y="1232" type="line"/>
      <point x="864.0" y="1232.0" type="line"/>
      <point x="864.0" y="1472.0" type="line"/>
      <point x="288.0" y="1472" type="line"/>
      <point x="288.0" y="1472"/>
      <point x="96.0" y="832.0"/>
      <point x="96.0" y="832.0" type="curve"/>
      <point x="96.0" y="832.0"/>
      <point x="368.0" y="832.0"/>
      <point x="368.0" y="832.0" type="curve"/>
    </contour>
    <contour>
      <point x="624.0" y="480.0" type="curve"/>
      <point x="624.0" y="320.0"/>
      <point x="496.0" y="208.0"/>
      <point x="352.0" y="208.0" type="curve"/>
      <point x="224.0" y="208.0"/>
      <point x="160.0" y="240.0"/>
      <point x="96.0" y="288.0" type="curve"/>
      <point x="96.0" y="32.0" type="line"/>
      <point x="160.0" y="0.0"/>
      <point x="256.0" y="-32.0"/>
      <point x="352.0" y="-32.0" type="curve"/>
      <point x="672.0" y="-32.0"/>
      <point x="896.0" y="192.0"/>
      <point x="896.0" y="480.0" type="curve"/>
      <point x="896.0" y="768.0"/>
      <point x="672.0" y="992.0"/>
      <point x="352.0" y="992.0" type="curve"/>
      <point x="320.0" y="992.0"/>
      <point x="336.0" y="992.0"/>
      <point x="304.0" y="992.0" type="curve"/>
      <point x="96.0" y="832.0" type="line"/>
      <point x="96.0" y="672.0" type="line"/>
      <point x="160.0" y="720.0"/>
      <point x="224.0" y="752.0"/>
      <point x="352.0" y="752.0" type="curve" smooth="yes"/>
      <point x="496.0" y="752.0"/>
      <point x="624.0" y="640.0"/>
    </contour>
  </outline>
</glyph>
<glyph name="six" format="1">
  <advance width="1120"/>
  <unicode hex="0036"/>
  <outline>
    <contour>
      <point x="560" y="208" type="curve"/>
      <point x="448" y="208"/>
      <point x="352" y="304"/>
      <point x="352" y="416" type="curve" smooth="yes"/>
      <point x="352" y="480" type="line" smooth="yes"/>
      <point x="352" y="592"/>
      <point x="448" y="688"/>
      <point x="560" y="688" type="curve"/>
      <point x="672" y="688"/>
      <point x="768" y="592"/>
      <point x="768" y="480" type="curve" smooth="yes"/>
      <point x="768" y="416" type="line" smooth="yes"/>
      <point x="768" y="304"/>
      <point x="672" y="208"/>
    </contour>
    <contour>
      <point x="560" y="-32" type="curve"/>
      <point x="816" y="-32"/>
      <point x="1024" y="160"/>
      <point x="1024" y="416" type="curve"/>
      <point x="1024" y="480" type="line"/>
      <point x="1024" y="736"/>
      <point x="800" y="928"/>
      <point x="512" y="864" type="curve"/>
      <point x="448" y="864" type="line"/>
      <point x="176" y="736" type="line"/>
      <point x="128" y="640"/>
      <point x="96" y="496"/>
      <point x="96" y="416" type="curve"/>
      <point x="96" y="416" type="line"/>
      <point x="96" y="160"/>
      <point x="304" y="-32"/>
    </contour>
    <contour>
      <point x="384" y="608" type="curve"/>
      <point x="384" y="608"/>
      <point x="816" y="1472"/>
      <point x="816" y="1472" type="curve"/>
      <point x="816" y="1472"/>
      <point x="544" y="1472"/>
      <point x="544" y="1472" type="curve"/>
      <point x="176" y="736" type="line"/>
      <point x="176" y="736"/>
      <point x="384" y="608"/>
    </contour>
  </outline>
</glyph>
<glyph name="seven" format="1">
  <advance width="1024.0"/>
  <unicode hex="0037"/>
  <outline>
    <contour>
      <point x="768.0" y="1472" type="curve"/>
      <point x="128.0" y="0" type="line"/>
      <point x="424.0" y="0" type="line"/>
      <point x="928.0" y="1232" type="line"/>
      <point x="928.0" y="1472" type="line"/>
      <point x="928.0" y="1472"/>
      <point x="768.0" y="1472"/>
    </contour>
    <contour>
      <point x="848.0" y="1472.0" type="curve"/>
      <point x="32.0" y="1472.0" type="line"/>
      <point x="32.0" y="1472.0"/>
      <point x="32.0" y="1232.0"/>
      <point x="32.0" y="1232.0" type="curve"/>
      <point x="848.0" y="1232.0" type="line"/>
      <point x="848.0" y="1232.0"/>
      <point x="848.0" y="1472.0"/>
    </contour>
  </outline>
</glyph>
<glyph name="eight" format="1">
  <advance width="1056"/>
  <unicode hex="0038"/>
  <outline>
    <contour>
      <point x="736" y="512" type="curve" smooth="yes"/>
      <point x="736.0" y="416.0" type="line" smooth="yes"/>
      <point x="736.0" y="304.0"/>
      <point x="640.0" y="208.0"/>
      <point x="528.0" y="208.0" type="curve"/>
      <point x="416.0" y="208.0"/>
      <point x="320.0" y="304.0"/>
      <point x="320.0" y="416.0" type="curve" smooth="yes"/>
      <point x="320" y="512" type="line" smooth="yes"/>
      <point x="320" y="624"/>
      <point x="416" y="720"/>
      <point x="528" y="720" type="curve"/>
      <point x="640" y="720"/>
      <point x="736" y="624"/>
    </contour>
    <contour>
      <point x="992.0" y="416.0" type="curve"/>
      <point x="992" y="512" type="line"/>
      <point x="992" y="736"/>
      <point x="784" y="912"/>
      <point x="528" y="912" type="curve"/>
      <point x="272" y="912"/>
      <point x="64" y="736"/>
      <point x="64" y="512" type="curve"/>
      <point x="64.0" y="416.0" type="line"/>
      <point x="64.0" y="160.0"/>
      <point x="272.0" y="-32.0"/>
      <point x="528.0" y="-32.0" type="curve"/>
      <point x="784.0" y="-32.0"/>
      <point x="992.0" y="160.0"/>
    </contour>
    <contour>
      <point x="672" y="1064" type="line"/>
      <point x="672" y="984"/>
      <point x="620" y="912"/>
      <point x="528" y="912" type="curve"/>
      <point x="440" y="912"/>
      <point x="384" y="984"/>
      <point x="384" y="1064" type="curve"/>
      <point x="384" y="1120" type="line"/>
      <point x="384" y="1200"/>
      <point x="440" y="1272"/>
      <point x="528" y="1272" type="curve"/>
      <point x="620" y="1272"/>
      <point x="672" y="1200"/>
      <point x="672" y="1120" type="curve"/>
    </contour>
    <contour>
      <point x="928" y="1064" type="curve"/>
      <point x="928" y="1120" type="line"/>
      <point x="928" y="1344"/>
      <point x="756" y="1504"/>
      <point x="528" y="1504" type="curve"/>
      <point x="300" y="1504"/>
      <point x="128" y="1344"/>
      <point x="128" y="1120" type="curve"/>
      <point x="128" y="1064" type="line"/>
      <point x="128" y="840"/>
      <point x="300" y="720"/>
      <point x="528" y="720" type="curve"/>
      <point x="756" y="720"/>
      <point x="928" y="840"/>
    </contour>
  </outline>
</glyph>
<glyph name="nine" format="1">
  <advance width="1056"/>
  <unicode hex="0039"/>
  <outline>
    <contour>
      <point x="544" y="0" type="curve"/>
      <point x="912" y="736" type="line"/>
      <point x="960" y="832"/>
      <point x="992" y="976"/>
      <point x="992" y="1056" type="curve"/>
      <point x="992" y="1312"/>
      <point x="784" y="1504"/>
      <point x="528" y="1504" type="curve"/>
      <point x="272" y="1504"/>
      <point x="64" y="1312"/>
      <point x="64" y="1056" type="curve"/>
      <point x="64" y="992" type="line"/>
      <point x="64" y="736"/>
      <point x="288" y="544"/>
      <point x="576" y="608" type="curve"/>
      <point x="576" y="608"/>
      <point x="272" y="0"/>
      <point x="272" y="0" type="curve"/>
      <point x="272" y="0"/>
      <point x="544" y="0"/>
    </contour>
    <contour>
      <point x="528" y="1264" type="curve"/>
      <point x="640" y="1264"/>
      <point x="736" y="1168"/>
      <point x="736" y="1056" type="curve" smooth="yes"/>
      <point x="736" y="992" type="line" smooth="yes"/>
      <point x="736" y="880"/>
      <point x="640" y="784"/>
      <point x="528" y="784" type="curve"/>
      <point x="416" y="784"/>
      <point x="320" y="880"/>
      <point x="320" y="992" type="curve" smooth="yes"/>
      <point x="320" y="1056" type="line" smooth="yes"/>
      <point x="320" y="1168"/>
      <point x="416" y="1264"/>
    </contour>
  </outline>
</glyph>
<glyph name="colon" format="1">
  <advance width="496"/>
  <unicode hex="003A"/>
  <outline>
    <contour>
      <point x="384" y="736" type="line"/>
      <point x="384" y="1024" type="line"/>
      <point x="128" y="1024" type="line"/>
      <point x="128" y="736" type="line"/>
    </contour>
    <contour>
      <point x="384" y="0" type="line"/>
      <point x="384" y="288" type="line"/>
      <point x="128" y="288" type="line"/>
      <point x="128" y="0" type="line"/>
    </contour>
  </outline>
</glyph>
<glyph name="semicolon" format="1">
  <advance width="512.0"/>
  <unicode hex="003B"/>
  <outline>
    <contour>
      <point x="384" y="1024" type="line"/>
      <point x="128" y="1024" type="line"/>
      <point x="128" y="736" type="line"/>
      <point x="384" y="736" type="line"/>
    </contour>
    <contour>
      <point x="384" y="-320" type="line"/>
      <point x="384" y="288" type="line"/>
      <point x="128" y="288" type="line"/>
      <point x="128" y="-384" type="line"/>
    </contour>
  </outline>
</glyph>
<glyph name="at" format="1">
  <advance width="1792.0"/>
  <unicode hex="0040"/>
  <outline>
    <contour>
      <point x="1012" y="872" type="curve"/>
      <point x="1124" y="872" type="line"/>
      <point x="1284" y="1024" type="line"/>
      <point x="1212" y="1044"/>
      <point x="1128" y="1052"/>
      <point x="1024" y="1052" type="curve"/>
      <point x="792" y="1052"/>
      <point x="480" y="860"/>
      <point x="480" y="428" type="curve" smooth="yes"/>
      <point x="480" y="252"/>
      <point x="584" y="168"/>
      <point x="732" y="168" type="curve"/>
      <point x="888" y="168"/>
      <point x="1024" y="324"/>
      <point x="1048" y="424" type="curve"/>
      <point x="964" y="508" type="line"/>
      <point x="936" y="376"/>
      <point x="848" y="352"/>
      <point x="796" y="352" type="curve"/>
      <point x="720" y="352"/>
      <point x="680" y="404"/>
      <point x="712" y="556" type="curve"/>
      <point x="752" y="740"/>
      <point x="868" y="872"/>
    </contour>
    <contour>
      <point x="972" y="288" type="line" smooth="yes"/>
      <point x="972" y="128"/>
      <point x="1120" y="-32"/>
      <point x="1280" y="-32" type="curve"/>
      <point x="1436" y="-32"/>
      <point x="1728" y="32"/>
      <point x="1728" y="512" type="curve" smooth="yes"/>
      <point x="1728" y="704" type="line" smooth="yes"/>
      <point x="1728" y="1184"/>
      <point x="1408" y="1504"/>
      <point x="896" y="1504" type="curve"/>
      <point x="448" y="1504"/>
      <point x="64" y="1184"/>
      <point x="64" y="704" type="curve" smooth="yes"/>
      <point x="64" y="512" type="line" smooth="yes"/>
      <point x="64" y="-96"/>
      <point x="516" y="-288"/>
      <point x="896" y="-288" type="curve"/>
      <point x="896" y="-112" type="line"/>
      <point x="580" y="-112"/>
      <point x="256" y="32"/>
      <point x="256" y="576" type="curve" smooth="yes"/>
      <point x="256" y="640" type="line" smooth="yes"/>
      <point x="256" y="1056"/>
      <point x="540" y="1328"/>
      <point x="896" y="1328" type="curve"/>
      <point x="1312" y="1328"/>
      <point x="1536" y="1044"/>
      <point x="1536" y="640" type="curve" smooth="yes"/>
      <point x="1536" y="576" type="line" smooth="yes"/>
      <point x="1536" y="160"/>
      <point x="1376" y="152"/>
      <point x="1312" y="152" type="curve"/>
      <point x="1184" y="152"/>
      <point x="1140" y="336"/>
      <point x="1164" y="452" type="curve" smooth="yes"/>
      <point x="1284" y="1024" type="line"/>
      <point x="1072" y="1024" type="line"/>
      <point x="916" y="296" type="line"/>
      <point x="972" y="296" type="line"/>
    </contour>
  </outline>
</glyph>
<glyph name="A" format="1">
  <advance width="1056.0"/>
  <unicode hex="0041"/>
  <outline>
    <contour>
      <point x="768" y="208" type="line"/>
      <point x="768" y="448" type="line"/>
      <point x="256" y="448" type="line"/>
      <point x="256" y="208" type="line"/>
    </contour>
    <contour>
      <point x="288" y="0" type="line"/>
      <point x="288" y="0"/>
      <point x="576" y="1472"/>
      <point x="576" y="1472" type="curve"/>
      <point x="352" y="1472" type="line"/>
      <point x="352" y="1472"/>
      <point x="32" y="0"/>
      <point x="32" y="0" type="curve"/>
    </contour>
    <contour>
      <point x="736" y="0" type="curve"/>
      <point x="1024" y="0" type="line"/>
      <point x="1024" y="0"/>
      <point x="704" y="1472"/>
      <point x="704" y="1472" type="curve"/>
      <point x="448" y="1472" type="line"/>
      <point x="448" y="1472"/>
      <point x="736" y="0"/>
    </contour>
  </outline>
</glyph>
<glyph name="B" format="1">
  <advance width="1088.0"/>
  <unicode hex="0042"/>
  <outline>
    <contour>
      <point x="512" y="720" type="line"/>
      <point x="720" y="720"/>
      <point x="960" y="800"/>
      <point x="960" y="1056" type="curve"/>
      <point x="960" y="1312"/>
      <point x="816" y="1472"/>
      <point x="496" y="1472" type="curve"/>
      <point x="304" y="1472" type="line"/>
      <point x="304" y="1232" type="line"/>
      <point x="512" y="1232" type="line"/>
      <point x="624" y="1232"/>
      <point x="688" y="1152"/>
      <point x="688" y="1056" type="curve"/>
      <point x="688" y="960"/>
      <point x="624" y="880"/>
      <point x="512" y="880" type="curve"/>
      <point x="304" y="880" type="line"/>
      <point x="304" y="720" type="line"/>
    </contour>
    <contour>
      <point x="560" y="240" type="curve"/>
      <point x="368" y="240" type="line"/>
      <point x="368" y="656" type="line"/>
      <point x="560" y="656" type="line"/>
      <point x="656" y="656"/>
      <point x="752" y="576"/>
      <point x="752" y="448" type="curve"/>
      <point x="752" y="448" type="line"/>
      <point x="752" y="320"/>
      <point x="656" y="240"/>
    </contour>
    <contour>
      <point x="496" y="0" type="curve"/>
      <point x="880" y="0"/>
      <point x="1024" y="160"/>
      <point x="1024" y="448" type="curve"/>
      <point x="1024" y="736"/>
      <point x="768" y="816"/>
      <point x="560" y="816" type="curve"/>
      <point x="368" y="816" type="line"/>
      <point x="368" y="1472" type="line"/>
      <point x="368" y="1472"/>
      <point x="96" y="1472"/>
      <point x="96" y="1472" type="curve"/>
      <point x="96" y="0" type="line"/>
      <point x="96" y="0"/>
      <point x="496" y="0"/>
    </contour>
  </outline>
</glyph>
<glyph name="C" format="1">
  <advance width="816"/>
  <unicode hex="0043"/>
  <outline>
    <contour>
      <point x="784" y="16" type="curve"/>
      <point x="784" y="256" type="line"/>
      <point x="720" y="224"/>
      <point x="640" y="208"/>
      <point x="560" y="208" type="curve"/>
      <point x="400" y="208"/>
      <point x="336" y="320"/>
      <point x="336" y="480" type="curve"/>
      <point x="336" y="992" type="line"/>
      <point x="336" y="1152"/>
      <point x="400" y="1264"/>
      <point x="560" y="1264" type="curve"/>
      <point x="640" y="1264"/>
      <point x="720" y="1248"/>
      <point x="784" y="1216" type="curve"/>
      <point x="784" y="1456" type="line"/>
      <point x="752" y="1472"/>
      <point x="656" y="1504"/>
      <point x="560" y="1504" type="curve"/>
      <point x="272" y="1504"/>
      <point x="64" y="1280"/>
      <point x="64" y="1024" type="curve"/>
      <point x="64" y="448" type="line"/>
      <point x="64" y="192"/>
      <point x="272" y="-32"/>
      <point x="560" y="-32" type="curve"/>
      <point x="656" y="-32"/>
      <point x="752" y="0"/>
    </contour>
  </outline>
</glyph>
<glyph name="E" format="1">
  <advance width="864"/>
  <unicode hex="0045"/>
  <outline>
    <contour>
      <point x="96" y="0" type="line"/>
      <point x="96" y="0"/>
      <point x="800" y="0"/>
      <point x="800" y="0" type="curve"/>
      <point x="800" y="240" type="line"/>
      <point x="368" y="240" type="line"/>
      <point x="368" y="656" type="line"/>
      <point x="736" y="656" type="line"/>
      <point x="736" y="896" type="line"/>
      <point x="368" y="896" type="line"/>
      <point x="368" y="1232" type="line"/>
      <point x="800" y="1232" type="line"/>
      <point x="800" y="1232"/>
      <point x="800" y="1472"/>
      <point x="800" y="1472" type="curve"/>
      <point x="800" y="1472"/>
      <point x="96" y="1472"/>
      <point x="96" y="1472" type="curve"/>
    </contour>
  </outline>
</glyph>
<glyph name="F" format="1">
  <advance width="864"/>
  <unicode hex="0046"/>
  <outline>
    <contour>
      <point x="96" y="0" type="line"/>
      <point x="96" y="0"/>
      <point x="368" y="0"/>
      <point x="368" y="0" type="curve"/>
      <point x="368" y="0"/>
      <point x="368" y="656"/>
      <point x="368" y="656" type="curve"/>
      <point x="736" y="656" type="line"/>
      <point x="736" y="896" type="line"/>
      <point x="368" y="896" type="line"/>
      <point x="368" y="1232" type="line"/>
      <point x="800" y="1232" type="line"/>
      <point x="800" y="1472" type="line"/>
      <point x="800" y="1472"/>
      <point x="96" y="1472"/>
      <point x="96" y="1472" type="curve"/>
    </contour>
  </outline>
</glyph>
<glyph name="G" format="1">
  <advance width="992"/>
  <unicode hex="0047"/>
  <outline>
    <contour>
      <point x="656" y="128" type="line"/>
      <point x="928" y="128" type="line"/>
      <point x="928" y="768" type="line"/>
      <point x="656" y="768" type="line"/>
    </contour>
    <contour>
      <point x="928" y="128" type="curve"/>
      <point x="704" y="272" type="line"/>
      <point x="656" y="240"/>
      <point x="624" y="208"/>
      <point x="560" y="208" type="curve"/>
      <point x="400" y="208"/>
      <point x="336" y="320"/>
      <point x="336" y="480" type="curve"/>
      <point x="336" y="992" type="line"/>
      <point x="336" y="1152"/>
      <point x="464" y="1264"/>
      <point x="624" y="1264" type="curve"/>
      <point x="704" y="1264"/>
      <point x="800" y="1248"/>
      <point x="864" y="1216" type="curve"/>
      <point x="864" y="1456" type="line"/>
      <point x="832" y="1472"/>
      <point x="656" y="1504"/>
      <point x="560" y="1504" type="curve"/>
      <point x="272" y="1504"/>
      <point x="64" y="1280"/>
      <point x="64" y="1024" type="curve"/>
      <point x="64" y="448" type="line"/>
      <point x="64" y="192"/>
      <point x="272" y="-32"/>
      <point x="560" y="-32" type="curve"/>
      <point x="688" y="-32"/>
      <point x="832" y="16"/>
    </contour>
  </outline>
</glyph>
<glyph name="H" format="1">
  <advance width="1056"/>
  <unicode hex="0048"/>
  <outline>
    <contour>
      <point x="96" y="0" type="line"/>
      <point x="96" y="0"/>
      <point x="368" y="0"/>
      <point x="368" y="0" type="curve"/>
      <point x="368" y="656" type="line"/>
      <point x="688" y="656" type="line"/>
      <point x="688" y="0" type="line"/>
      <point x="960" y="0" type="line"/>
      <point x="960" y="1472" type="line"/>
      <point x="688" y="1472" type="line"/>
      <point x="688" y="896" type="line"/>
      <point x="368" y="896" type="line"/>
      <point x="368" y="1472" type="line"/>
      <point x="96" y="1472" type="line"/>
    </contour>
  </outline>
</glyph>
<glyph name="I" format="1">
  <advance width="448"/>
  <unicode hex="0049"/>
  <outline>
    <contour>
      <point x="96" y="0" type="curve"/>
      <point x="352" y="0" type="line"/>
      <point x="352" y="1472" type="line"/>
      <point x="96" y="1472" type="line"/>
      <point x="96" y="240"/>
      <point x="96" y="0"/>
    </contour>
  </outline>
</glyph>
<glyph name="J" format="1">
  <advance width="696"/>
  <unicode hex="004A"/>
  <outline>
    <contour>
      <point x="336" y="1472" type="line"/>
      <point x="336" y="448" type="line"/>
      <point x="336" y="336"/>
      <point x="280" y="208"/>
      <point x="160" y="208" type="curve" smooth="yes"/>
      <point x="96" y="208"/>
      <point x="64" y="224"/>
      <point x="32" y="240" type="curve"/>
      <point x="32" y="16" type="line"/>
      <point x="64" y="-16"/>
      <point x="128" y="-32"/>
      <point x="192" y="-32" type="curve" smooth="yes"/>
      <point x="480" y="-32"/>
      <point x="608" y="192"/>
      <point x="608" y="480" type="curve"/>
      <point x="608" y="1472" type="line"/>
    </contour>
  </outline>
</glyph>
<glyph name="K" format="1">
  <advance width="992"/>
  <unicode hex="004B"/>
  <outline>
    <contour>
      <point x="960" y="0" type="line"/>
      <point x="960" y="0"/>
      <point x="624" y="800"/>
      <point x="624" y="800" type="curve"/>
      <point x="624" y="800"/>
      <point x="960" y="1472"/>
      <point x="960" y="1472" type="curve"/>
      <point x="704" y="1472" type="line"/>
      <point x="368" y="800" type="line"/>
      <point x="336" y="800" type="line"/>
      <point x="336" y="800"/>
      <point x="672" y="0"/>
      <point x="672" y="0" type="curve"/>
    </contour>
    <contour>
      <point x="368" y="0" type="line"/>
      <point x="368" y="1472" type="line"/>
      <point x="96" y="1472" type="line"/>
      <point x="96" y="0" type="line"/>
    </contour>
  </outline>
</glyph>
<glyph name="L" format="1">
  <advance width="832"/>
  <unicode hex="004C"/>
  <outline>
    <contour>
      <point x="96" y="0" type="line"/>
      <point x="96" y="0"/>
      <point x="800" y="0"/>
      <point x="800" y="0" type="curve"/>
      <point x="800" y="240" type="line"/>
      <point x="368" y="240" type="line"/>
      <point x="368" y="1472" type="line"/>
      <point x="96" y="1472" type="line"/>
    </contour>
  </outline>
</glyph>
<glyph name="N" format="1">
  <advance width="1104"/>
  <unicode hex="004E"/>
  <outline>
    <contour>
      <point x="368" y="832" type="line"/>
      <point x="784" y="0" type="line"/>
      <point x="1008" y="0" type="line"/>
      <point x="1008" y="1472" type="line"/>
      <point x="736" y="1472" type="line"/>
      <point x="736" y="640" type="line"/>
      <point x="320" y="1472" type="line"/>
      <point x="96" y="1472" type="line"/>
      <point x="96" y="0" type="line"/>
      <point x="368" y="0" type="line"/>
    </contour>
  </outline>
</glyph>
<glyph name="O" format="1">
  <advance width="1120"/>
  <unicode hex="004F"/>
  <outline>
    <contour>
      <point x="784" y="1024" type="curve"/>
      <point x="784" y="448" type="line"/>
      <point x="784" y="320"/>
      <point x="704" y="208"/>
      <point x="560" y="208" type="curve"/>
      <point x="416" y="208"/>
      <point x="336" y="320"/>
      <point x="336" y="448" type="curve"/>
      <point x="336" y="1024" type="line"/>
      <point x="336" y="1152"/>
      <point x="416" y="1264"/>
      <point x="560" y="1264" type="curve"/>
      <point x="704" y="1264"/>
      <point x="784" y="1152"/>
    </contour>
    <contour>
      <point x="1056" y="480" type="curve"/>
      <point x="1056" y="992" type="line"/>
      <point x="1056" y="1280"/>
      <point x="848" y="1504"/>
      <point x="560" y="1504" type="curve"/>
      <point x="272" y="1504"/>
      <point x="64" y="1280"/>
      <point x="64" y="992" type="curve"/>
      <point x="64" y="480" type="line"/>
      <point x="64" y="192"/>
      <point x="272" y="-32"/>
      <point x="560" y="-32" type="curve"/>
      <point x="848" y="-32"/>
      <point x="1056" y="192"/>
    </contour>
  </outline>
</glyph>
<glyph name="P" format="1">
  <advance width="1024"/>
  <unicode hex="0050"/>
  <outline>
    <contour>
      <point x="368" y="1472" type="curve"/>
      <point x="368" y="1472"/>
      <point x="96" y="1472"/>
      <point x="96" y="1472" type="curve"/>
      <point x="96" y="0" type="line"/>
      <point x="96" y="0"/>
      <point x="368" y="0"/>
      <point x="368" y="0" type="curve"/>
      <point x="368" y="0"/>
      <point x="368" y="1472"/>
    </contour>
    <contour>
      <point x="368" y="1472" type="line"/>
    </contour>
    <contour>
      <point x="464" y="512" type="line"/>
      <point x="768" y="512"/>
      <point x="960" y="704"/>
      <point x="960" y="992" type="curve"/>
      <point x="960" y="1280"/>
      <point x="768" y="1472"/>
      <point x="464" y="1472" type="curve"/>
      <point x="240" y="1472" type="line"/>
      <point x="240" y="1232" type="line"/>
      <point x="464" y="1232" type="line"/>
      <point x="608" y="1232"/>
      <point x="688" y="1120"/>
      <point x="688" y="992" type="curve"/>
      <point x="688" y="864"/>
      <point x="608" y="752"/>
      <point x="464" y="752" type="curve"/>
      <point x="240" y="752" type="line"/>
      <point x="240" y="512" type="line"/>
    </contour>
  </outline>
</glyph>
<glyph name="Q" format="1">
  <advance width="1152"/>
  <unicode hex="0051"/>
  <outline>
    <contour>
      <point x="1120" y="0" type="line"/>
      <point x="560" y="0" type="line"/>
      <point x="560" y="128" type="line"/>
      <point x="992" y="256" type="line"/>
    </contour>
    <contour>
      <point x="1056" y="480" type="line"/>
      <point x="1056" y="192"/>
      <point x="880" y="0"/>
      <point x="560" y="0" type="curve"/>
      <point x="272" y="0"/>
      <point x="64" y="192"/>
      <point x="64" y="480" type="curve"/>
      <point x="64" y="992" type="line"/>
      <point x="64" y="1280"/>
      <point x="272" y="1504"/>
      <point x="560" y="1504" type="curve"/>
      <point x="848" y="1504"/>
      <point x="1056" y="1280"/>
      <point x="1056" y="992" type="curve"/>
    </contour>
    <contour>
      <point x="784" y="1024" type="line"/>
      <point x="784" y="1152"/>
      <point x="704" y="1264"/>
      <point x="560" y="1264" type="curve"/>
      <point x="416" y="1264"/>
      <point x="336" y="1152"/>
      <point x="336" y="1024" type="curve"/>
      <point x="336" y="448" type="line"/>
      <point x="336" y="320"/>
      <point x="416" y="240"/>
      <point x="560" y="240" type="curve"/>
      <point x="704" y="240"/>
      <point x="784" y="320"/>
      <point x="784" y="448" type="curve"/>
    </contour>
  </outline>
</glyph>
<glyph name="U" format="1">
  <advance width="1040"/>
  <unicode hex="0055"/>
  <outline>
    <contour>
      <point x="360" y="1472" type="curve"/>
      <point x="360" y="416" type="line" smooth="yes"/>
      <point x="360" y="320"/>
      <point x="424" y="256"/>
      <point x="520" y="256" type="curve" smooth="yes"/>
      <point x="616" y="256"/>
      <point x="680" y="320"/>
      <point x="680" y="416" type="curve" smooth="yes"/>
      <point x="680" y="1472" type="line"/>
      <point x="680" y="1472"/>
      <point x="952" y="1472"/>
      <point x="952" y="1472" type="curve"/>
      <point x="952" y="448" type="line" smooth="yes"/>
      <point x="952" y="160"/>
      <point x="792" y="-32"/>
      <point x="520" y="-32" type="curve" smooth="yes"/>
      <point x="248" y="-32"/>
      <point x="88" y="160"/>
      <point x="88" y="448" type="curve" smooth="yes"/>
      <point x="88" y="1472" type="line"/>
      <point x="88" y="1472"/>
      <point x="360" y="1472"/>
    </contour>
  </outline>
</glyph>
<glyph name="V" format="1">
  <advance width="1056"/>
  <unicode hex="0056"/>
  <outline>
    <contour>
      <point x="608" y="0" type="line"/>
      <point x="608" y="0"/>
      <point x="320" y="1472"/>
      <point x="320" y="1472" type="curve"/>
      <point x="32" y="1472" type="line"/>
      <point x="32" y="1472"/>
      <point x="352" y="0"/>
      <point x="352" y="0" type="curve"/>
    </contour>
    <contour>
      <point x="480" y="0" type="curve"/>
      <point x="704" y="0" type="line"/>
      <point x="704" y="0"/>
      <point x="1024" y="1472"/>
      <point x="1024" y="1472" type="curve"/>
      <point x="768" y="1472" type="line"/>
      <point x="768" y="1472"/>
      <point x="480" y="0"/>
    </contour>
  </outline>
</glyph>
<glyph name="W" format="1">
  <advance width="1632.0"/>
  <unicode hex="0057"/>
  <outline>
    <contour>
      <point x="608" y="0" type="line"/>
      <point x="608" y="0"/>
      <point x="320" y="1472"/>
      <point x="320" y="1472" type="curve"/>
      <point x="32" y="1472" type="line"/>
      <point x="32" y="1472"/>
      <point x="352" y="0"/>
      <point x="352" y="0" type="curve"/>
    </contour>
    <contour>
      <point x="480" y="0" type="curve"/>
      <point x="672" y="0" type="line"/>
      <point x="672" y="0"/>
      <point x="912" y="1472"/>
      <point x="912" y="1472" type="curve"/>
      <point x="704" y="1472" type="line"/>
      <point x="704" y="1472"/>
      <point x="480" y="0"/>
    </contour>
    <contour>
      <point x="1056" y="0" type="curve"/>
      <point x="1280" y="0" type="line"/>
      <point x="1280" y="0"/>
      <point x="1600" y="1472"/>
      <point x="1600" y="1472" type="curve"/>
      <point x="1344" y="1472" type="line"/>
      <point x="1344" y="1472"/>
      <point x="1056" y="0"/>
    </contour>
    <contour>
      <point x="1184" y="0" type="line"/>
      <point x="1184" y="0"/>
      <point x="960" y="1476"/>
      <point x="960" y="1476" type="curve"/>
      <point x="704" y="1472" type="line"/>
      <point x="704" y="1472"/>
      <point x="928" y="0"/>
      <point x="928" y="0" type="curve"/>
    </contour>
  </outline>
</glyph>
<glyph name="X" format="1">
  <advance width="1104"/>
  <unicode hex="0058"/>
  <outline>
    <contour>
      <point x="96" y="1472" type="line"/>
      <point x="96" y="1472"/>
      <point x="400" y="784"/>
      <point x="400" y="784" type="curve"/>
      <point x="400" y="784"/>
      <point x="32" y="0"/>
      <point x="32" y="0" type="curve"/>
      <point x="288" y="0" type="line"/>
      <point x="656" y="784" type="line"/>
      <point x="688" y="784" type="line"/>
      <point x="688" y="784"/>
      <point x="384" y="1472"/>
      <point x="384" y="1472" type="curve"/>
    </contour>
    <contour>
      <point x="1072" y="0" type="line"/>
      <point x="720" y="784" type="line"/>
      <point x="1056" y="1472" type="line"/>
      <point x="800" y="1472" type="line"/>
      <point x="464" y="784" type="line"/>
      <point x="432" y="784" type="line"/>
      <point x="784" y="0" type="line"/>
    </contour>
  </outline>
</glyph>
<glyph name="Y" format="1">
  <advance width="1024"/>
  <unicode hex="0059"/>
  <outline>
    <contour>
      <point x="32" y="1472" type="line"/>
      <point x="32" y="1472"/>
      <point x="360" y="732"/>
      <point x="360" y="732" type="curve"/>
      <point x="632" y="732" type="line"/>
      <point x="632" y="732"/>
      <point x="320" y="1472"/>
      <point x="320" y="1472" type="curve"/>
    </contour>
    <contour>
      <point x="632" y="732" type="line"/>
      <point x="992" y="1472" type="line"/>
      <point x="736" y="1472" type="line"/>
      <point x="376" y="732" type="line"/>
    </contour>
    <contour>
      <point x="360" y="0" type="line"/>
      <point x="632" y="0" type="line"/>
      <point x="632" y="732" type="line"/>
      <point x="360" y="732" type="line"/>
    </contour>
  </outline>
</glyph>
<glyph name="Z" format="1">
  <advance width="896"/>
  <unicode hex="005A"/>
  <outline>
    <contour>
      <point x="64" y="192" type="line"/>
      <point x="352" y="240" type="line"/>
      <point x="832" y="1280" type="line"/>
      <point x="544" y="1232" type="line"/>
    </contour>
    <contour>
      <point x="832" y="0"/>
      <point x="832" y="240"/>
      <point x="832" y="240" type="curve"/>
      <point x="128" y="240" type="line"/>
      <point x="64" y="192" type="line"/>
      <point x="64" y="192"/>
      <point x="64" y="0"/>
      <point x="64" y="0" type="curve"/>
      <point x="832" y="0" type="line"/>
    </contour>
    <contour>
      <point x="832" y="1280" type="line"/>
      <point x="832" y="1280"/>
      <point x="832" y="1472"/>
      <point x="832" y="1472" type="curve"/>
      <point x="64" y="1472" type="line"/>
      <point x="64" y="1472"/>
      <point x="64" y="1232"/>
      <point x="64" y="1232" type="curve"/>
      <point x="768" y="1232" type="line"/>
    </contour>
  </outline>
</glyph>
<glyph name="a" format="1">
  <advance width="880"/>
  <unicode hex="0061"/>
  <outline>
    <contour>
      <point x="368.0" y="-32.0" type="curve"/>
      <point x="560.0" y="-32.0"/>
      <point x="640.0" y="128.0"/>
      <point x="640.0" y="288.0" type="curve"/>
      <point x="544.0" y="320.0" type="line"/>
      <point x="544.0" y="264.0"/>
      <point x="496.0" y="192.0"/>
      <point x="432.0" y="192.0" type="curve"/>
      <point x="368.0" y="192.0"/>
      <point x="320.0" y="264.0"/>
      <point x="320.0" y="320.0" type="curve"/>
      <point x="320.0" y="376.0"/>
      <point x="368" y="448"/>
      <point x="432" y="448" type="curve"/>
      <point x="640" y="448" type="line"/>
      <point x="640" y="640" type="line"/>
      <point x="368.0" y="640.0" type="line"/>
      <point x="176.0" y="640.0"/>
      <point x="64.0" y="480.0"/>
      <point x="64.0" y="320.0" type="curve"/>
      <point x="64.0" y="128.0"/>
      <point x="176.0" y="-32.0"/>
    </contour>
    <contour>
      <point x="544" y="672" type="curve"/>
      <point x="544" y="128" type="line"/>
      <point x="576" y="128" type="line"/>
      <point x="640" y="0" type="line"/>
      <point x="800" y="0" type="line"/>
      <point x="800" y="640" type="line"/>
      <point x="800" y="928"/>
      <point x="640" y="1056"/>
      <point x="416" y="1056" type="curve"/>
      <point x="288" y="1056"/>
      <point x="192" y="1024"/>
      <point x="128" y="992" type="curve"/>
      <point x="128" y="784" type="line"/>
      <point x="192" y="800"/>
      <point x="256" y="832"/>
      <point x="384" y="832" type="curve"/>
      <point x="480" y="832"/>
      <point x="544" y="784"/>
    </contour>
  </outline>
</glyph>
<glyph name="b" format="1">
  <advance width="992"/>
  <unicode hex="0062"/>
  <outline>
    <contour>
      <point x="672" y="352" type="line"/>
      <point x="672" y="264"/>
      <point x="600" y="192"/>
      <point x="512" y="192" type="curve"/>
      <point x="424" y="192"/>
      <point x="352" y="264"/>
      <point x="352" y="352" type="curve"/>
      <point x="256" y="320" type="line"/>
      <point x="256" y="128"/>
      <point x="384" y="-32"/>
      <point x="576" y="-32" type="curve"/>
      <point x="768" y="-32"/>
      <point x="928" y="128"/>
      <point x="928" y="320" type="curve"/>
      <point x="928" y="704" type="line"/>
      <point x="928" y="896"/>
      <point x="768" y="1056"/>
      <point x="576" y="1056" type="curve"/>
      <point x="384" y="1056"/>
      <point x="256" y="896"/>
      <point x="256" y="704" type="curve"/>
      <point x="352" y="672" type="line"/>
      <point x="352" y="760"/>
      <point x="424" y="832"/>
      <point x="512" y="832" type="curve"/>
      <point x="600" y="832"/>
      <point x="672" y="760"/>
      <point x="672" y="672" type="curve"/>
    </contour>
    <contour>
      <point x="96" y="1472" type="line"/>
      <point x="96" y="0" type="line"/>
      <point x="256" y="0" type="line"/>
      <point x="320" y="128" type="line"/>
      <point x="352" y="128" type="line"/>
      <point x="352" y="1536" type="line"/>
    </contour>
  </outline>
</glyph>
<glyph name="c" format="1">
  <advance width="752"/>
  <unicode hex="0063"/>
  <outline>
    <contour>
      <point x="704" y="20" type="curve"/>
      <point x="704" y="240" type="line"/>
      <point x="640" y="208"/>
      <point x="608" y="192"/>
      <point x="512" y="192" type="curve"/>
      <point x="384" y="192"/>
      <point x="320" y="256"/>
      <point x="320" y="416" type="curve" smooth="yes"/>
      <point x="320" y="608" type="line" smooth="yes"/>
      <point x="320" y="768"/>
      <point x="384" y="832"/>
      <point x="512" y="832" type="curve"/>
      <point x="608" y="832"/>
      <point x="640" y="816"/>
      <point x="704" y="784" type="curve"/>
      <point x="704" y="1004" type="line"/>
      <point x="672" y="1024"/>
      <point x="592" y="1056"/>
      <point x="480" y="1056" type="curve"/>
      <point x="224" y="1056"/>
      <point x="64" y="896"/>
      <point x="64" y="640" type="curve" smooth="yes"/>
      <point x="64" y="384" type="line" smooth="yes"/>
      <point x="64" y="128"/>
      <point x="224" y="-32"/>
      <point x="480" y="-32" type="curve"/>
      <point x="592" y="-32"/>
      <point x="668" y="0"/>
    </contour>
  </outline>
</glyph>
<glyph name="e" format="1">
  <advance width="928"/>
  <unicode hex="0065"/>
  <outline>
    <contour>
      <point x="320" y="672" type="line" smooth="yes"/>
      <point x="320" y="760"/>
      <point x="392" y="832"/>
      <point x="480" y="832" type="curve"/>
      <point x="568" y="832"/>
      <point x="640" y="760"/>
      <point x="640" y="672" type="curve" smooth="yes"/>
      <point x="640" y="608" type="line"/>
      <point x="320" y="608" type="line"/>
    </contour>
    <contour>
      <point x="800" y="32" type="curve"/>
      <point x="800" y="240" type="line"/>
      <point x="736" y="224"/>
      <point x="640" y="192"/>
      <point x="512" y="192" type="curve"/>
      <point x="416" y="192"/>
      <point x="320" y="240"/>
      <point x="320" y="352" type="curve" smooth="yes"/>
      <point x="320" y="416" type="line"/>
      <point x="864" y="416" type="line"/>
      <point x="864" y="640" type="line" smooth="yes"/>
      <point x="864" y="896"/>
      <point x="736" y="1056"/>
      <point x="480" y="1056" type="curve"/>
      <point x="224" y="1056"/>
      <point x="64" y="896"/>
      <point x="64" y="640" type="curve" smooth="yes"/>
      <point x="64" y="384" type="line" smooth="yes"/>
      <point x="64" y="96"/>
      <point x="256" y="-32"/>
      <point x="480" y="-32" type="curve"/>
      <point x="608" y="-32"/>
      <point x="736" y="0"/>
    </contour>
  </outline>
</glyph>
<glyph name="f" format="1">
  <advance width="640"/>
  <unicode hex="0066"/>
  <outline>
    <contour>
      <point x="160" y="1248" type="curve"/>
      <point x="160" y="1024" type="line"/>
      <point x="32" y="1024" type="line"/>
      <point x="32" y="800" type="line"/>
      <point x="160" y="800" type="line"/>
      <point x="160" y="0" type="line"/>
      <point x="416" y="0" type="line"/>
      <point x="416" y="800" type="line"/>
      <point x="608" y="800" type="line"/>
      <point x="608" y="1024" type="line"/>
      <point x="416" y="1024" type="line"/>
      <point x="416" y="1216" type="line"/>
      <point x="416" y="1248"/>
      <point x="448" y="1280"/>
      <point x="480" y="1280" type="curve" smooth="yes"/>
      <point x="532" y="1280"/>
      <point x="576" y="1264"/>
      <point x="608" y="1248" type="curve"/>
      <point x="608" y="1472" type="line"/>
      <point x="576" y="1488"/>
      <point x="480" y="1504"/>
      <point x="416" y="1504" type="curve"/>
      <point x="256" y="1504"/>
      <point x="160" y="1440"/>
    </contour>
  </outline>
</glyph>
<glyph name="g" format="1">
  <advance width="992"/>
  <unicode hex="0067"/>
  <outline>
    <contour>
      <point x="320" y="672" type="line"/>
      <point x="320" y="760"/>
      <point x="392" y="832"/>
      <point x="480" y="832" type="curve"/>
      <point x="568" y="832"/>
      <point x="640" y="760"/>
      <point x="640" y="672" type="curve"/>
      <point x="736" y="704" type="line"/>
      <point x="736" y="896"/>
      <point x="608" y="1056"/>
      <point x="416" y="1056" type="curve"/>
      <point x="224" y="1056"/>
      <point x="64" y="896"/>
      <point x="64" y="704" type="curve"/>
      <point x="64" y="320" type="line"/>
      <point x="64" y="128"/>
      <point x="224" y="-32"/>
      <point x="416" y="-32" type="curve"/>
      <point x="608" y="-32"/>
      <point x="736" y="128"/>
      <point x="736" y="320" type="curve"/>
      <point x="640" y="352" type="line"/>
      <point x="640" y="264"/>
      <point x="568" y="192"/>
      <point x="480" y="192" type="curve"/>
      <point x="392" y="192"/>
      <point x="320" y="264"/>
      <point x="320" y="352" type="curve"/>
    </contour>
    <contour>
      <point x="448" y="-416" type="curve"/>
      <point x="672" y="-416"/>
      <point x="896" y="-288"/>
      <point x="896" y="0" type="curve" smooth="yes"/>
      <point x="896" y="1024" type="line"/>
      <point x="736" y="1024" type="line"/>
      <point x="672" y="896" type="line"/>
      <point x="640" y="896" type="line"/>
      <point x="640" y="-32" type="line" smooth="yes"/>
      <point x="640" y="-144"/>
      <point x="512" y="-192"/>
      <point x="416" y="-192" type="curve"/>
      <point x="288" y="-192"/>
      <point x="192" y="-160"/>
      <point x="128" y="-144" type="curve"/>
      <point x="128" y="-352" type="line"/>
      <point x="192" y="-384"/>
      <point x="320" y="-416"/>
    </contour>
  </outline>
</glyph>
<glyph name="h" format="1">
  <advance width="1008"/>
  <unicode hex="0068"/>
  <outline>
    <contour>
      <point x="352" y="0" type="line"/>
      <point x="352" y="0"/>
      <point x="352" y="1536"/>
      <point x="352" y="1536" type="curve"/>
      <point x="96" y="1472" type="line"/>
      <point x="96" y="0" type="line"/>
    </contour>
    <contour>
      <point x="928" y="0" type="line"/>
      <point x="928" y="704" type="line"/>
      <point x="928" y="896"/>
      <point x="768" y="1056"/>
      <point x="576" y="1056" type="curve"/>
      <point x="384" y="1056"/>
      <point x="256" y="896"/>
      <point x="256" y="704" type="curve"/>
      <point x="352" y="672" type="line"/>
      <point x="352" y="760"/>
      <point x="424" y="832"/>
      <point x="512" y="832" type="curve"/>
      <point x="600" y="832"/>
      <point x="672" y="760"/>
      <point x="672" y="672" type="curve"/>
      <point x="672" y="0" type="line"/>
    </contour>
  </outline>
</glyph>
<glyph name="i" format="1">
  <advance width="448"/>
  <unicode hex="0069"/>
  <outline>
    <contour>
      <point x="352" y="1216" type="line"/>
      <point x="352" y="1472" type="line"/>
      <point x="96" y="1472" type="line"/>
      <point x="96" y="1216" type="line"/>
    </contour>
    <contour>
      <point x="352" y="0" type="line"/>
      <point x="352" y="1024" type="line"/>
      <point x="96" y="1024" type="line"/>
      <point x="96" y="0" type="line"/>
    </contour>
  </outline>
</glyph>
<glyph name="k" format="1">
  <advance width="960"/>
  <unicode hex="006B"/>
  <outline>
    <contour>
      <point x="352" y="0" type="line"/>
      <point x="352" y="1536" type="line"/>
      <point x="352" y="1536"/>
      <point x="96" y="1472"/>
      <point x="96" y="1472" type="curve"/>
      <point x="96" y="0" type="line"/>
    </contour>
    <contour>
      <point x="928" y="0" type="line"/>
      <point x="592" y="512" type="line"/>
      <point x="928" y="1024" type="line"/>
      <point x="680" y="1024" type="line"/>
      <point x="344" y="512" type="line"/>
      <point x="320" y="512" type="line"/>
      <point x="656" y="0" type="line"/>
    </contour>
  </outline>
</glyph>
<glyph name="m" format="1">
  <advance width="1584.0"/>
  <unicode hex="006D"/>
  <outline>
    <contour>
      <point x="1504" y="0" type="line"/>
      <point x="1504" y="704" type="line"/>
      <point x="1504" y="896"/>
      <point x="1344" y="1056"/>
      <point x="1152" y="1056" type="curve"/>
      <point x="960" y="1056"/>
      <point x="832" y="896"/>
      <point x="832" y="704" type="curve"/>
      <point x="928" y="672" type="line"/>
      <point x="928" y="760"/>
      <point x="1000" y="832"/>
      <point x="1088" y="832" type="curve"/>
      <point x="1176" y="832"/>
      <point x="1248" y="760"/>
      <point x="1248" y="672" type="curve"/>
      <point x="1248" y="0" type="line"/>
    </contour>
    <contour>
      <point x="928" y="0" type="line"/>
      <point x="928" y="704" type="line"/>
      <point x="928" y="896"/>
      <point x="768" y="1056"/>
      <point x="576" y="1056" type="curve"/>
      <point x="384" y="1056"/>
      <point x="256" y="896"/>
      <point x="256" y="704" type="curve"/>
      <point x="352" y="672" type="line"/>
      <point x="352" y="760"/>
      <point x="424" y="832"/>
      <point x="512" y="832" type="curve"/>
      <point x="600" y="832"/>
      <point x="672" y="760"/>
      <point x="672" y="672" type="curve"/>
      <point x="672" y="0" type="line"/>
    </contour>
    <contour>
      <point x="352" y="0" type="line"/>
      <point x="352" y="896" type="line"/>
      <point x="320" y="896" type="line"/>
      <point x="256" y="1024" type="line"/>
      <point x="96" y="1024" type="line"/>
      <point x="96" y="0" type="line"/>
    </contour>
  </outline>
</glyph>
<glyph name="o" format="1">
  <advance width="960"/>
  <unicode hex="006F"/>
  <outline>
    <contour>
      <point x="480" y="-32" type="curve"/>
      <point x="736" y="-32"/>
      <point x="896" y="128"/>
      <point x="896" y="384" type="curve" smooth="yes"/>
      <point x="896" y="640" type="line" smooth="yes"/>
      <point x="896" y="896"/>
      <point x="736" y="1056"/>
      <point x="480" y="1056" type="curve"/>
      <point x="224" y="1056"/>
      <point x="64" y="896"/>
      <point x="64" y="640" type="curve" smooth="yes"/>
      <point x="64" y="384" type="line" smooth="yes"/>
      <point x="64" y="128"/>
      <point x="224" y="-32"/>
    </contour>
    <contour>
      <point x="480" y="192" type="curve"/>
      <point x="392" y="192"/>
      <point x="320" y="264"/>
      <point x="320" y="352" type="curve" smooth="yes"/>
      <point x="320" y="672" type="line" smooth="yes"/>
      <point x="320" y="760"/>
      <point x="392" y="832"/>
      <point x="480" y="832" type="curve"/>
      <point x="568" y="832"/>
      <point x="640" y="760"/>
      <point x="640" y="672" type="curve" smooth="yes"/>
      <point x="640" y="352" type="line" smooth="yes"/>
      <point x="640" y="264"/>
      <point x="568" y="192"/>
    </contour>
  </outline>
</glyph>
<glyph name="r" format="1">
  <advance width="704.0"/>
  <unicode hex="0072"/>
  <outline>
    <contour>
      <point x="672" y="800" type="curve"/>
      <point x="672" y="1008" type="line"/>
      <point x="656" y="1040"/>
      <point x="608" y="1056"/>
      <point x="576" y="1056" type="curve"/>
      <point x="384" y="1056"/>
      <point x="256" y="896"/>
      <point x="256" y="704" type="curve"/>
      <point x="352" y="672" type="line"/>
      <point x="352" y="760"/>
      <point x="424" y="832"/>
      <point x="512" y="832" type="curve"/>
      <point x="576" y="832"/>
      <point x="624" y="816"/>
    </contour>
    <contour>
      <point x="96" y="0" type="line"/>
      <point x="352" y="0" type="line"/>
      <point x="352" y="896" type="line"/>
      <point x="320" y="896" type="line"/>
      <point x="256" y="1024" type="line"/>
      <point x="96" y="1024" type="line"/>
    </contour>
  </outline>
</glyph>
<glyph name="u" format="1">
  <advance width="1008"/>
  <unicode hex="0075"/>
  <outline>
    <contour>
      <point x="336" y="352" type="curve"/>
      <point x="336" y="1024" type="line"/>
      <point x="80" y="1024" type="line"/>
      <point x="80" y="320" type="line"/>
      <point x="80" y="128"/>
      <point x="240" y="-32"/>
      <point x="432" y="-32" type="curve"/>
      <point x="624" y="-32"/>
      <point x="752" y="128"/>
      <point x="752" y="320" type="curve"/>
      <point x="656" y="352" type="line"/>
      <point x="656" y="264"/>
      <point x="584" y="192"/>
      <point x="496" y="192" type="curve"/>
      <point x="408" y="192"/>
      <point x="336" y="264"/>
    </contour>
    <contour>
      <point x="912" y="1024" type="line"/>
      <point x="656" y="1024" type="line"/>
      <point x="656" y="128" type="line"/>
      <point x="688" y="128" type="line"/>
      <point x="752" y="0" type="line"/>
      <point x="912" y="0" type="line"/>
    </contour>
  </outline>
</glyph>
<glyph name="w" format="1">
  <advance width="1284.0"/>
  <unicode hex="0077"/>
  <outline>
    <contour>
      <point x="804" y="0" type="curve"/>
      <point x="1028" y="0" type="line"/>
      <point x="1036" y="32"/>
      <point x="1252" y="1024"/>
      <point x="1252" y="1024" type="curve"/>
      <point x="1004" y="1024" type="line"/>
      <point x="1004" y="1024"/>
      <point x="804" y="0"/>
    </contour>
    <contour>
      <point x="924" y="0" type="line"/>
      <point x="756" y="1024" type="line"/>
      <point x="548" y="1024" type="line"/>
      <point x="548" y="1024"/>
      <point x="764" y="0"/>
      <point x="764" y="0" type="curve"/>
    </contour>
    <contour>
      <point x="492" y="0" type="line"/>
      <point x="492" y="0"/>
      <point x="292" y="1024"/>
      <point x="292" y="1024" type="curve"/>
      <point x="32" y="1024" type="line"/>
      <point x="256" y="0" type="line"/>
    </contour>
    <contour>
      <point x="372" y="0" type="curve"/>
      <point x="532" y="0" type="line"/>
      <point x="756" y="1024" type="line"/>
      <point x="548" y="1024" type="line"/>
      <point x="548" y="1024"/>
      <point x="372" y="0"/>
    </contour>
  </outline>
</glyph>
<glyph name="x" format="1">
  <advance width="864"/>
  <unicode hex="0078"/>
  <outline>
    <contour>
      <point x="32" y="1024" type="line"/>
      <point x="288" y="512" type="line"/>
      <point x="32" y="0" type="line"/>
      <point x="272" y="0" type="line"/>
      <point x="528" y="512" type="line"/>
      <point x="560" y="512" type="line"/>
      <point x="304" y="1024" type="line"/>
    </contour>
    <contour>
      <point x="832" y="0" type="line"/>
      <point x="576" y="512" type="line"/>
      <point x="832" y="1024" type="line"/>
      <point x="592" y="1024" type="line"/>
      <point x="336" y="512" type="line"/>
      <point x="304" y="512" type="line"/>
      <point x="560" y="0" type="line"/>
    </contour>
  </outline>
</glyph>
<glyph name="y" format="1">
  <advance width="840.0"/>
  <unicode hex="0079"/>
  <outline>
    <contour>
      <point x="244" y="-448" type="line"/>
      <point x="500" y="-384" type="line"/>
      <point x="808" y="1024" type="line"/>
      <point x="552" y="1024" type="line"/>
      <point x="424" y="320" type="line"/>
      <point x="392" y="320" type="line"/>
    </contour>
    <contour>
      <point x="488" y="0" type="line"/>
      <point x="296" y="1024" type="line"/>
      <point x="32" y="1024" type="line"/>
      <point x="256" y="0" type="line"/>
    </contour>
  </outline>
</glyph>
<glyph name="z" format="1">
  <advance width="832"/>
  <unicode hex="007A"/>
  <outline>
    <contour>
      <point x="768" y="0" type="line"/>
      <point x="768" y="224" type="line"/>
      <point x="384" y="224" type="line"/>
      <point x="768" y="896" type="line"/>
      <point x="768" y="1024" type="line"/>
      <point x="64" y="1024" type="line"/>
      <point x="64" y="800" type="line"/>
      <point x="480" y="800" type="line"/>
      <point x="64" y="128" type="line"/>
      <point x="64" y="0" type="line"/>
    </contour>
  </outline>
</glyph>
<glyph name="bar" format="1">
  <advance width="352"/>
  <unicode hex="007C"/>
  <outline>
    <contour>
      <point x="64" y="-128" type="line"/>
      <point x="288" y="-128" type="line"/>
      <point x="288" y="1600" type="line"/>
      <point x="64" y="1600" type="line"/>
    </contour>
  </outline>
</glyph>
<glyph name="endash" format="1">
  <advance width="960.0"/>
  <unicode hex="2013"/>
  <outline>
    <contour>
      <point x="896" y="768" type="line"/>
      <point x="64" y="768" type="line"/>
      <point x="64" y="528" type="line"/>
      <point x="896" y="528" type="line"/>
    </contour>
  </outline>
</glyph>
<glyph name="quoteleft" format="1">
  <advance width="500"/>
  <unicode hex="2018"/>
  <outline>
    <contour>
      <point x="384" y="1536" type="line"/>
      <point x="384" y="1536"/>
      <point x="128" y="1472"/>
      <point x="128" y="1472" type="curve"/>
      <point x="128" y="1024" type="line"/>
      <point x="384" y="1024" type="line"/>
    </contour>
  </outline>
</glyph>
<glyph name="quoteright" format="1">
  <advance width="500"/>
  <unicode hex="2019"/>
  <outline>
    <contour>
      <point x="384.0" y="1024.0" type="curve"/>
      <point x="384.0" y="1472.0" type="line"/>
      <point x="128" y="1472" type="line"/>
      <point x="128" y="960" type="line"/>
      <point x="128" y="960"/>
      <point x="384.0" y="1024.0"/>
    </contour>
  </outline>
</glyph>
<glyph name="quotedblleft" format="1">
  <advance width="960"/>
  <unicode hex="201C"/>
  <outline>
    <contour>
      <point x="128" y="1472" type="curve"/>
      <point x="128" y="1024" type="line"/>
      <point x="384" y="1024" type="line"/>
      <point x="384" y="1536" type="line"/>
      <point x="384" y="1536"/>
      <point x="128" y="1472"/>
    </contour>
    <contour>
      <point x="576" y="1472" type="curve"/>
      <point x="576" y="1024" type="line"/>
      <point x="832" y="1024" type="line"/>
      <point x="832" y="1536" type="line"/>
      <point x="832" y="1536"/>
      <point x="576" y="1472"/>
    </contour>
  </outline>
</glyph>
<glyph name="quotedblright" format="1">
  <advance width="960"/>
  <unicode hex="201D"/>
  <outline>
    <contour>
      <point x="384" y="1024" type="curve"/>
      <point x="384" y="1472" type="line"/>
      <point x="128" y="1472" type="line"/>
      <point x="128" y="960" type="line"/>
      <point x="128" y="960"/>
      <point x="384" y="1024"/>
    </contour>
    <contour>
      <point x="832" y="1024" type="curve"/>
      <point x="832" y="1472" type="line"/>
      <point x="576" y="1472" type="line"/>
      <point x="576" y="960" type="line"/>
      <point x="576" y="960"/>
      <point x="832" y="1024"/>
    </contour>
  </outline>
</glyph>
<glyph name="Q.alt001" format="1">
  <advance width="1088.0"/>
  <outline>
    <contour>
      <point x="576" y="-256" type="line"/>
      <point x="832" y="-192" type="line"/>
      <point x="832" y="192" type="line"/>
      <point x="576" y="128" type="line"/>
    </contour>
    <contour>
      <point x="768.0" y="1024.0" type="curve"/>
      <point x="768.0" y="448.0" type="line"/>
      <point x="768.0" y="320.0"/>
      <point x="688.0" y="208.0"/>
      <point x="544.0" y="208.0" type="curve"/>
      <point x="400.0" y="208.0"/>
      <point x="320.0" y="320.0"/>
      <point x="320.0" y="448.0" type="curve"/>
      <point x="320.0" y="1024.0" type="line"/>
      <point x="320.0" y="1152.0"/>
      <point x="400.0" y="1264.0"/>
      <point x="544.0" y="1264.0" type="curve"/>
      <point x="688.0" y="1264.0"/>
      <point x="768.0" y="1152.0"/>
    </contour>
    <contour>
      <point x="1040.0" y="480.0" type="curve"/>
      <point x="1040.0" y="992.0" type="line"/>
      <point x="1040.0" y="1280.0"/>
      <point x="832.0" y="1504.0"/>
      <point x="544.0" y="1504.0" type="curve"/>
      <point x="256.0" y="1504.0"/>
      <point x="48.0" y="1280.0"/>
      <point x="48.0" y="992.0" type="curve"/>
      <point x="48.0" y="480.0" type="line"/>
      <point x="48.0" y="192.0"/>
      <point x="256.0" y="-32.0"/>
      <point x="544.0" y="-32.0" type="curve"/>
      <point x="832.0" y="-32.0"/>
      <point x="1040.0" y="192.0"/>
    </contour>
  </outline>
</glyph>
<glyph name="Q.alt002" format="1">
  <advance width="500"/>
  <outline>
    <contour>
      <point x="1104" y="0" type="line"/>
      <point x="1104" y="0"/>
      <point x="784" y="640"/>
      <point x="784" y="640" type="curve"/>
      <point x="528" y="640" type="line"/>
      <point x="528" y="640"/>
      <point x="848" y="0"/>
      <point x="848" y="0" type="curve"/>
    </contour>
    <contour>
      <point x="1056" y="448" type="curve"/>
      <point x="1056" y="1024" type="line"/>
      <point x="1056" y="1280"/>
      <point x="848" y="1504"/>
      <point x="560" y="1504" type="curve"/>
      <point x="272" y="1504"/>
      <point x="64" y="1280"/>
      <point x="64" y="1024" type="curve"/>
      <point x="64" y="448" type="line"/>
      <point x="64" y="192"/>
      <point x="272" y="-32"/>
      <point x="560" y="-32" type="curve"/>
      <point x="848" y="-32"/>
      <point x="1056" y="192"/>
    </contour>
    <contour>
      <point x="784" y="1024" type="curve"/>
      <point x="784" y="448" type="line"/>
      <point x="784" y="336"/>
      <point x="704" y="224"/>
      <point x="560" y="224" type="curve"/>
      <point x="416" y="224"/>
      <point x="336" y="336"/>
      <point x="336" y="448" type="curve"/>
      <point x="336" y="1024" type="line"/>
      <point x="336" y="1136"/>
      <point x="416" y="1248"/>
      <point x="560" y="1248" type="curve"/>
      <point x="704" y="1248"/>
      <point x="784" y="1136"/>
    </contour>
  </outline>
</glyph>
<glyph name="a.alt001" format="1">
  <advance width="500"/>
  <outline>
    <contour>
      <point x="320" y="672" type="line"/>
      <point x="320" y="760"/>
      <point x="392" y="832"/>
      <point x="480" y="832" type="curve"/>
      <point x="568" y="832"/>
      <point x="640" y="760"/>
      <point x="640" y="672" type="curve"/>
      <point x="736" y="704" type="line"/>
      <point x="736" y="896"/>
      <point x="608" y="1056"/>
      <point x="416" y="1056" type="curve"/>
      <point x="224" y="1056"/>
      <point x="64" y="896"/>
      <point x="64" y="704" type="curve"/>
      <point x="64" y="320" type="line"/>
      <point x="64" y="128"/>
      <point x="224" y="-32"/>
      <point x="416" y="-32" type="curve"/>
      <point x="608" y="-32"/>
      <point x="736" y="128"/>
      <point x="736" y="320" type="curve"/>
      <point x="640" y="352" type="line"/>
      <point x="640" y="264"/>
      <point x="568" y="192"/>
      <point x="480" y="192" type="curve"/>
      <point x="392" y="192"/>
      <point x="320" y="264"/>
      <point x="320" y="352" type="curve"/>
    </contour>
    <contour>
      <point x="896" y="576" type="line"/>
      <point x="640" y="576" type="line"/>
      <point x="640" y="128" type="line"/>
      <point x="672" y="128" type="line"/>
      <point x="736" y="0" type="line"/>
      <point x="896" y="0" type="line"/>
    </contour>
    <contour>
      <point x="896" y="448" type="line"/>
      <point x="896" y="1024" type="line"/>
      <point x="736" y="1024" type="line"/>
      <point x="672" y="896" type="line"/>
      <point x="640" y="896" type="line"/>
      <point x="640" y="448" type="line"/>
    </contour>
  </outline>
</glyph>
<glyph name="f_f_i" format="1">
  <advance width="1664.0"/>
  <outline>
    <contour>
      <point x="1568.0" y="0" type="line"/>
      <point x="1568.0" y="1024" type="line"/>
      <point x="1312.0" y="1024" type="line"/>
      <point x="1312.0" y="0" type="line"/>
    </contour>
    <contour>
      <point x="1568.0" y="1216" type="line"/>
      <point x="1568.0" y="1472" type="line"/>
      <point x="1312.0" y="1472" type="line"/>
      <point x="1312.0" y="1216" type="line"/>
    </contour>
    <contour>
      <point x="736.0" y="1024" type="line"/>
      <point x="608.0" y="1024" type="line"/>
      <point x="608.0" y="800" type="line"/>
      <point x="736.0" y="800" type="line"/>
      <point x="736.0" y="0" type="line"/>
      <point x="992.0" y="0" type="line"/>
      <point x="992.0" y="800" type="line"/>
      <point x="1312.0" y="800" type="line"/>
      <point x="1312.0" y="1024" type="line"/>
      <point x="992.0" y="1024" type="line"/>
      <point x="992.0" y="1216" type="line"/>
      <point x="992.0" y="1248"/>
      <point x="1024.0" y="1280"/>
      <point x="1056.0" y="1280" type="curve" smooth="yes"/>
      <point x="1108.0" y="1280"/>
      <point x="1152.0" y="1264"/>
      <point x="1184.0" y="1248" type="curve"/>
      <point x="1184.0" y="1472" type="line"/>
      <point x="1152.0" y="1488"/>
      <point x="1056.0" y="1504"/>
      <point x="992.0" y="1504" type="curve"/>
      <point x="832.0" y="1504"/>
      <point x="736.0" y="1440"/>
      <point x="736.0" y="1248" type="curve"/>
    </contour>
    <contour>
      <point x="160.0" y="1248" type="curve"/>
      <point x="160.0" y="1024" type="line"/>
      <point x="32.0" y="1024" type="line"/>
      <point x="32.0" y="800" type="line"/>
      <point x="160.0" y="800" type="line"/>
      <point x="160.0" y="0" type="line"/>
      <point x="416.0" y="0" type="line"/>
      <point x="416.0" y="800" type="line"/>
      <point x="608.0" y="800" type="line"/>
      <point x="608.0" y="1024" type="line"/>
      <point x="416.0" y="1024" type="line"/>
      <point x="416.0" y="1216" type="line"/>
      <point x="416.0" y="1248"/>
      <point x="448.0" y="1280"/>
      <point x="480.0" y="1280" type="curve" smooth="yes"/>
      <point x="532.0" y="1280"/>
      <point x="576.0" y="1264"/>
      <point x="608.0" y="1248" type="curve"/>
      <point x="608.0" y="1472" type="line"/>
      <point x="576.0" y="1488"/>
      <point x="480.0" y="1504"/>
      <point x="416.0" y="1504" type="curve"/>
      <point x="256.0" y="1504"/>
      <point x="160.0" y="1440"/>
    </contour>
  </outline>
</glyph>
<glyph name="f_f_l" format="1">
  <advance width="1664.0"/>
  <outline>
    <contour>
      <point x="160" y="1248" type="curve"/>
      <point x="160" y="1024" type="line"/>
      <point x="32" y="1024" type="line"/>
      <point x="32" y="800" type="line"/>
      <point x="160" y="800" type="line"/>
      <point x="160" y="0" type="line"/>
      <point x="416" y="0" type="line"/>
      <point x="416" y="800" type="line"/>
      <point x="608" y="800" type="line"/>
      <point x="608" y="1024" type="line"/>
      <point x="416" y="1024" type="line"/>
      <point x="416" y="1216" type="line"/>
      <point x="416" y="1248"/>
      <point x="448" y="1280"/>
      <point x="480" y="1280" type="curve" smooth="yes"/>
      <point x="532" y="1280"/>
      <point x="576" y="1264"/>
      <point x="608" y="1248" type="curve"/>
      <point x="608" y="1472" type="line"/>
      <point x="576" y="1488"/>
      <point x="480" y="1504"/>
      <point x="416" y="1504" type="curve"/>
      <point x="256" y="1504"/>
      <point x="160" y="1440"/>
    </contour>
    <contour>
      <point x="736.0" y="1024.0" type="line"/>
      <point x="608.0" y="1024.0" type="line"/>
      <point x="608.0" y="800.0" type="line"/>
      <point x="736.0" y="800.0" type="line"/>
      <point x="736.0" y="0.0" type="line"/>
      <point x="992.0" y="0.0" type="line"/>
      <point x="992.0" y="800.0" type="line"/>
      <point x="1312.0" y="800.0" type="line"/>
      <point x="1312.0" y="1024.0" type="line"/>
      <point x="992.0" y="1024.0" type="line"/>
      <point x="992.0" y="1216.0" type="line"/>
      <point x="992.0" y="1248.0"/>
      <point x="1024.0" y="1280.0"/>
      <point x="1056.0" y="1280.0" type="curve" smooth="yes"/>
      <point x="1108.0" y="1280.0"/>
      <point x="1152.0" y="1264.0"/>
      <point x="1184.0" y="1248.0" type="curve"/>
      <point x="1184.0" y="1472.0" type="line"/>
      <point x="1152.0" y="1488.0"/>
      <point x="1056.0" y="1504.0"/>
      <point x="992.0" y="1504.0" type="curve"/>
      <point x="832.0" y="1504.0"/>
      <point x="736.0" y="1440.0"/>
      <point x="736.0" y="1248.0" type="curve"/>
    </contour>
    <contour>
      <point x="1312.0" y="1472.0" type="line"/>
      <point x="1312.0" y="0.0" type="line"/>
      <point x="1568.0" y="0.0" type="line"/>
      <point x="1568.0" y="1536.0" type="line"/>
    </contour>
  </outline>
</glyph>
<glyph name="f_i" format="1">
  <advance width="1088"/>
  <outline>
    <contour>
      <point x="992" y="0" type="line"/>
      <point x="992" y="1024" type="line"/>
      <point x="736" y="1024" type="line"/>
      <point x="736" y="0" type="line"/>
    </contour>
    <contour>
      <point x="992" y="1216" type="line"/>
      <point x="992" y="1472" type="line"/>
      <point x="736" y="1472" type="line"/>
      <point x="736" y="1216" type="line"/>
    </contour>
    <contour>
      <point x="160" y="1024" type="line"/>
      <point x="32" y="1024" type="line"/>
      <point x="32" y="800" type="line"/>
      <point x="160" y="800" type="line"/>
      <point x="160" y="0" type="line"/>
      <point x="416" y="0" type="line"/>
      <point x="416" y="800" type="line"/>
      <point x="736" y="800" type="line"/>
      <point x="736" y="1024" type="line"/>
      <point x="416" y="1024" type="line"/>
      <point x="416" y="1216" type="line"/>
      <point x="416" y="1248"/>
      <point x="448" y="1280"/>
      <point x="480" y="1280" type="curve" smooth="yes"/>
      <point x="532" y="1280"/>
      <point x="576" y="1264"/>
      <point x="608" y="1248" type="curve"/>
      <point x="608" y="1472" type="line"/>
      <point x="576" y="1488"/>
      <point x="480" y="1504"/>
      <point x="416" y="1504" type="curve"/>
      <point x="256" y="1504"/>
      <point x="160" y="1440"/>
      <point x="160" y="1248" type="curve"/>
    </contour>
  </outline>
</glyph>
<glyph name="g_alt" format="1">
  <advance width="1062.0"/>
  <outline>
    <contour>
      <point x="632.0" y="480.0" type="move"/>
      <point x="632.0" y="480.0"/>
      <point x="310.0" y="-112.0"/>
      <point x="310.0" y="-112.0" type="curve"/>
      <point x="310.0" y="-112.0"/>
      <point x="248.0" y="-128.0"/>
      <point x="184.0" y="-144.0" type="curve"/>
      <point x="104.0" y="-64.0" type="line"/>
      <point x="376.0" y="480.0" type="line"/>
    </contour>
    <contour>
      <point x="632.0" y="480.0" type="line"/>
    </contour>
    <contour>
      <point x="504.0" y="288.0" type="curve" smooth="yes"/>
      <point x="264.0" y="288.0"/>
      <point x="88.0" y="384.0"/>
      <point x="88.0" y="656.0" type="curve"/>
      <point x="88.0" y="656.0" type="line"/>
      <point x="88.0" y="944.0"/>
      <point x="264.0" y="1056.0"/>
      <point x="504.0" y="1056.0" type="curve" smooth="yes"/>
      <point x="744.0" y="1056.0"/>
      <point x="920.0" y="944.0"/>
      <point x="920.0" y="656.0" type="curve"/>
      <point x="920.0" y="656.0" type="line"/>
      <point x="920.0" y="384.0"/>
      <point x="744.0" y="288.0"/>
    </contour>
    <contour>
      <point x="664.0" y="656.0" type="curve"/>
      <point x="664.0" y="656.0" type="line"/>
      <point x="664.0" y="768.0"/>
      <point x="600.0" y="832.0"/>
      <point x="504.0" y="832.0" type="curve" smooth="yes"/>
      <point x="408.0" y="832.0"/>
      <point x="344.0" y="768.0"/>
      <point x="344.0" y="656.0" type="curve"/>
      <point x="344.0" y="656.0" type="line"/>
      <point x="344.0" y="544.0"/>
      <point x="408.0" y="480.0"/>
      <point x="504.0" y="480.0" type="curve" smooth="yes"/>
      <point x="600.0" y="480.0"/>
      <point x="664.0" y="544.0"/>
    </contour>
    <contour>
      <point x="1018.0" y="832.0" type="line"/>
      <point x="664.0" y="832.0" type="line"/>
      <point x="520.0" y="1056.0" type="line"/>
      <point x="1018.0" y="1024.0" type="line"/>
    </contour>
    <contour>
      <point x="328.0" y="-288.0" type="curve"/>
      <point x="664.0" y="-192" type="line" smooth="yes"/>
      <point x="728.0" y="-174"/>
      <point x="744.0" y="-144"/>
      <point x="744.0" y="-96" type="curve" smooth="yes"/>
      <point x="744.0" y="-48"/>
      <point x="696.0" y="-16.0"/>
      <point x="632.0" y="-32.0" type="curve" smooth="yes"/>
      <point x="310.0" y="-112.0" type="line"/>
      <point x="312.0" y="80.0" type="line"/>
      <point x="632.0" y="160.0" type="line" smooth="yes"/>
      <point x="856.0" y="216"/>
      <point x="968.0" y="-16"/>
      <point x="968.0" y="-96.0" type="curve" smooth="yes"/>
      <point x="968.0" y="-192"/>
      <point x="936.0" y="-336"/>
      <point x="680.0" y="-400.0" type="curve" smooth="yes"/>
      <point x="488.0" y="-448.0" type="line"/>
      <point x="488.0" y="-448.0"/>
      <point x="328.0" y="-288.0"/>
    </contour>
    <contour>
      <point x="488.0" y="-448.0" type="curve"/>
      <point x="488.0" y="-448.0"/>
      <point x="488.0" y="-448.0"/>
    </contour>
  </outline>
</glyph>
<glyph name="t_t" format="1">
  <advance width="1120"/>
  <outline>
    <contour>
      <point x="928" y="0" type="line"/>
      <point x="928" y="800" type="line"/>
      <point x="1120" y="800" type="line"/>
      <point x="1120" y="1024" type="line"/>
      <point x="928" y="1024" type="line"/>
      <point x="928" y="1312" type="line"/>
      <point x="928" y="1312"/>
      <point x="672" y="1248"/>
      <point x="672" y="1248" type="curve"/>
      <point x="672" y="1024" type="line"/>
      <point x="544" y="1024" type="line"/>
      <point x="544" y="800" type="line"/>
      <point x="672" y="800" type="line"/>
      <point x="672" y="0" type="line"/>
    </contour>
    <contour>
      <point x="416" y="0" type="line"/>
      <point x="416" y="800" type="line"/>
      <point x="544" y="800" type="line"/>
      <point x="544" y="1024" type="line"/>
      <point x="416" y="1024" type="line"/>
      <point x="416" y="1312" type="line"/>
      <point x="416" y="1312"/>
      <point x="160" y="1248"/>
      <point x="160" y="1248" type="curve"/>
      <point x="160" y="1024" type="line"/>
      <point x="32" y="1024" type="line"/>
      <point x="32" y="800" type="line"/>
      <point x="160" y="800" type="line"/>
      <point x="160" y="0" type="line"/>
    </contour>
  </outline>
</glyph>
<glyph name="t_t_i" format="1">
  <advance width="1536"/>
  <outline>
    <contour>
      <point x="1440" y="0" type="line"/>
      <point x="1440" y="1024" type="line"/>
      <point x="1184" y="1024" type="line"/>
      <point x="1184" y="0" type="line"/>
    </contour>
    <contour>
      <point x="1440" y="1216" type="line"/>
      <point x="1440" y="1472" type="line"/>
      <point x="1184" y="1472" type="line"/>
      <point x="1184" y="1216" type="line"/>
    </contour>
    <contour>
      <point x="416" y="0" type="line"/>
      <point x="416" y="800" type="line"/>
      <point x="544" y="800" type="line"/>
      <point x="544" y="1024" type="line"/>
      <point x="416" y="1024" type="line"/>
      <point x="416" y="1312" type="line"/>
      <point x="416" y="1312"/>
      <point x="160" y="1248"/>
      <point x="160" y="1248" type="curve"/>
      <point x="160" y="1024" type="line"/>
      <point x="32" y="1024" type="line"/>
      <point x="32" y="800" type="line"/>
      <point x="160" y="800" type="line"/>
      <point x="160" y="0" type="line"/>
    </contour>
    <contour>
      <point x="928.0" y="0.0" type="line"/>
      <point x="928.0" y="800.0" type="line"/>
      <point x="1184" y="800" type="line"/>
      <point x="1184" y="1024" type="line"/>
      <point x="928.0" y="1024.0" type="line"/>
      <point x="928.0" y="1312.0" type="line"/>
      <point x="928.0" y="1312.0"/>
      <point x="672.0" y="1248.0"/>
      <point x="672.0" y="1248.0" type="curve"/>
      <point x="672.0" y="1024.0" type="line"/>
      <point x="544" y="1024" type="line"/>
      <point x="544" y="800" type="line"/>
      <point x="672.0" y="800.0" type="line"/>
      <point x="672.0" y="0.0" type="line"/>
    </contour>
  </outline>
</glyph>
